P1
# Imagem exemplo
10  10
0 0 0 0 0 0 0 0 0 0 
0 0 0 0 1 1 0 0 0 0 
0 0 0 1 1 1 1 0 0 0 
0 0 1 0 0 0 0 1 0 0 
0 0 1 1 0 0 1 1 0 0 
0 0 1 1 1 1 1 1 0 0 
0 0 1 1 0 0 1 1 0 0 
0 0 1 0 0 0 0 1 0 0 
0 1 1 1 0 0 1 1 1 0 
0 0 0 0 0 0 0 0 0 0 
